<svg xmlns:xlink="http://www.w3.org/1999/xlink" xmlns="http://www.w3.org/2000/svg" width="34" height="26" viewBox="0 0 34 26" fill="none"><path fill-rule="evenodd" clip-rule="evenodd" d="M0.0644531 2.37695C0.0644531 1.82467 0.512168 1.37695 1.06445 1.37695H17.4878C20.6195 1.37695 23.1908 3.77624 23.4639 6.83691H24.8697C26.9053 6.83691 28.8564 7.65115 30.2882 9.09819C31.7003 10.5253 32.4923 12.4519 32.4923 14.4596V18.2369C32.4923 18.7892 32.0446 19.2369 31.4923 19.2369H29.2809C29.686 19.8905 29.9197 20.6622 29.9197 21.4868C29.9197 23.824 28.0423 25.7368 25.704 25.7368C23.3658 25.7368 21.4883 23.824 21.4883 21.4868C21.4883 20.6623 21.722 19.8905 22.1271 19.2369H10.4293C10.8345 19.8905 11.0682 20.6623 11.0682 21.4868C11.0682 23.824 9.19069 25.7368 6.85244 25.7368C4.51419 25.7368 2.63672 23.824 2.63672 21.4868C2.63672 20.6623 2.87041 19.8905 3.27557 19.2369H1.06445C0.512168 19.2369 0.0644531 18.7892 0.0644531 18.2369V2.37695ZM9.06817 21.4868C9.06817 20.2425 8.07954 19.2502 6.87676 19.2369H6.82813C5.62535 19.2502 4.63672 20.2425 4.63672 21.4868C4.63672 22.7395 5.6387 23.7368 6.85244 23.7368C8.06619 23.7368 9.06817 22.7395 9.06817 21.4868ZM21.4878 17.237H6.88639L6.85244 17.2368L6.8185 17.237H2.06445V3.37695H17.4878C19.697 3.37695 21.4878 5.16781 21.4878 7.37695V17.237ZM25.7337 17.2369L25.704 17.2368L25.6743 17.2369H23.4883V8.83691H24.8697C26.3712 8.83691 27.8104 9.43751 28.8665 10.5049C29.9081 11.5576 30.4923 12.9787 30.4923 14.4596V16H29C28.4477 16 28 16.4477 28 17C28 17.0816 28.0098 17.161 28.0282 17.2369H25.7337ZM25.6827 19.2369C24.4785 19.2485 23.4883 20.2415 23.4883 21.4868C23.4883 22.7395 24.4903 23.7368 25.704 23.7368C26.9178 23.7368 27.9197 22.7395 27.9197 21.4868C27.9197 20.2415 26.9295 19.2485 25.7254 19.2369H25.6827Z" fill="#73BE2F"></path></svg>