<svg xmlns:xlink="http://www.w3.org/1999/xlink" xmlns="http://www.w3.org/2000/svg" width="34" height="30" viewBox="0 0 34 30" fill="none"><g clip-path="url(#IP_ID_55fc)" fill="#69727D"><path fill-rule="evenodd" clip-rule="evenodd" d="M16.779 29.8731L29.1778 17.1826L29.1767 17.1814L30.9879 15.3276C34.4117 11.8232 34.4117 6.14149 30.9879 2.63709C27.564 -0.867311 22.0129 -0.867311 18.5891 2.63709L16.7779 4.4909L14.9667 2.63709C11.5428 -0.867311 5.99172 -0.867311 2.56788 2.63709C-0.85596 6.14149 -0.85596 11.8232 2.56788 15.3276L4.37905 17.1815L4.37799 17.1826L16.7768 29.8731L16.7779 29.872L16.779 29.8731ZM11.4425 21.5514L7.17409 17.1826L7.17518 17.1814L3.99844 13.93C1.33385 11.2027 1.33385 6.76205 3.99844 4.03476C6.63764 1.33346 10.8969 1.33346 13.5361 4.03476L16.7779 7.3528L20.0196 4.03476C22.6588 1.33346 26.9181 1.33346 29.5573 4.03476C32.2219 6.76205 32.2219 11.2027 29.5573 13.93L27.4021 16.1359C26.9714 16.0972 26.5462 16.0646 26.137 16.0331L25.7888 16.0062C25.0151 15.9459 24.3156 15.8853 23.7029 15.7912C23.5215 15.7633 23.3496 15.7404 23.183 15.7181C23.0754 15.7037 22.9701 15.6897 22.8658 15.6748C23.1667 15.2908 23.4439 15.0237 23.6632 14.8471C23.7866 14.7476 23.887 14.6807 23.9585 14.6382C24.0123 14.64 24.0784 14.6414 24.1545 14.6414C24.3572 14.6414 24.6385 14.6316 24.9571 14.5919C25.5601 14.5166 26.4498 14.3162 27.1437 13.7243C27.3229 13.5715 27.4804 13.4066 27.6184 13.2358C27.9741 12.7958 28.1614 12.2861 28.158 11.7549C28.1547 11.2351 27.9701 10.7674 27.7067 10.3866C27.2568 9.73595 26.5271 9.25789 25.7278 9.04431C25.4324 8.71331 24.9736 8.24722 24.4753 7.87623C24.0582 7.56579 23.4219 7.18708 22.6757 6.89181C22.8897 6.7836 23.0243 6.74424 23.0772 6.72877C23.6073 6.57375 23.9119 6.01822 23.7569 5.48813C23.6019 4.95805 23.0465 4.654 22.5164 4.80901C22.0448 4.94693 21.0502 5.33014 19.5847 6.75577C18.4964 7.81445 17.6282 8.85752 16.7129 10.2348C16.6799 10.1631 16.6498 10.0948 16.6226 10.0302L16.6171 10.017L16.6111 10.0041C15.8999 8.44413 15.1591 7.33919 14.2443 6.66114C13.2811 5.94728 12.2489 5.79484 11.1801 5.87298C9.84913 5.97028 8.85692 6.42789 8.27308 6.8655C7.88868 6.85703 7.4186 6.84908 6.97142 6.84619C6.38801 6.84244 5.75742 6.84594 5.44882 6.88103C4.88138 6.94557 4.21331 7.28451 3.83827 7.95628C3.43421 8.68003 3.48745 9.56494 3.95204 10.4728C4.83428 12.1966 6.48891 13.2826 8.40647 13.7355C9.57373 14.0113 10.133 14.8873 10.7114 16.4002C11.0897 17.3897 11.3729 18.5778 11.4425 21.5514ZM13.4575 23.6138L16.7768 27.0112L16.7779 27.0101L16.779 27.0112L25.5864 17.9965C24.8319 17.9375 24.0808 17.8726 23.3994 17.768C23.2853 17.7505 23.1578 17.7337 23.0194 17.7155C22.4757 17.6439 21.7619 17.5499 21.018 17.3011C20.0403 16.9742 18.9938 16.3879 17.8758 15.2806C16.2805 13.7004 15.247 11.9094 14.7857 10.8214C14.1256 9.37653 13.5599 8.64334 13.0534 8.26793C12.7697 8.0577 12.4688 7.93328 12.1007 7.88191L12.1136 7.92108C12.2705 8.39368 12.4272 8.80462 12.5192 8.98675C12.7559 9.45508 12.806 9.52729 12.9965 9.77959C13.3295 10.2205 13.2421 10.8475 12.8014 11.1799C12.3607 11.5124 11.7335 11.4244 11.4006 10.9834C11.1232 10.6161 11.0122 10.4374 10.734 9.88704C10.5687 9.55984 10.3726 9.02313 10.2153 8.54921C10.1703 8.41384 10.1258 8.27525 10.0836 8.139C10.0224 8.16306 9.96483 8.18769 9.91088 8.21249C9.74352 8.2894 9.61333 8.36687 9.51996 8.43171C9.47338 8.46407 9.43796 8.49189 9.41296 8.51322C9.39086 8.53208 9.38038 8.5429 9.3789 8.54443C9.3789 8.54443 9.37878 8.54456 9.3789 8.54443L9.07022 8.88668L8.60942 8.87427C8.20006 8.86324 7.55623 8.85 6.95853 8.84615C6.32969 8.8421 5.83738 8.84975 5.6749 8.86821C5.67596 8.86793 5.67559 8.86814 5.6749 8.86821C5.67043 8.86941 5.65105 8.8747 5.62824 8.88891C5.60368 8.90419 5.591 8.91966 5.58455 8.93121C5.58096 8.93765 5.56334 8.9692 5.56722 9.0518C5.57142 9.14139 5.60254 9.30779 5.73244 9.56161C6.28935 10.6498 7.38216 11.4386 8.86622 11.7891C11.1006 12.3169 11.9804 14.119 12.5795 15.686C13.1697 17.2296 13.4851 19.0135 13.4575 23.6138ZM22.4087 13.2894C21.9374 13.669 21.389 14.2392 20.8497 15.056C20.3743 14.7992 19.8533 14.4242 19.2833 13.8596C18.7254 13.3071 18.2471 12.7238 17.8503 12.1666C18.8416 10.5656 19.6819 9.4887 20.735 8.43076C21.7073 8.54879 22.7294 9.0699 23.281 9.48055C23.7644 9.84038 24.2404 10.3686 24.4053 10.5749L24.6446 10.8743L25.0503 10.9416C25.5132 11.0184 25.89 11.2758 26.0618 11.5242C26.1418 11.6399 26.1578 11.723 26.1581 11.7675C26.1583 11.8004 26.1521 11.8684 26.0631 11.9785C25.9967 12.0605 25.9245 12.1356 25.8458 12.2027C25.5978 12.4143 25.1791 12.5486 24.7094 12.6073C24.4915 12.6345 24.2953 12.6414 24.1545 12.6414C24.1288 12.6414 24.1051 12.6412 24.0837 12.6408C23.8866 12.5957 23.7227 12.6188 23.6616 12.6284C23.4943 12.6547 23.3425 12.7138 23.2324 12.7636C22.9911 12.8726 22.7089 13.0476 22.4087 13.2894Z" fill="#73BE2F"></path></g><defs><clipPath id="IP_ID_55fc"><rect width="34" height="30" fill="white"></rect></clipPath></defs></svg>