<svg fill="none" height="40" viewBox="0 0 148 40" width="148" xmlns="http://www.w3.org/2000/svg" xmlns:xlink="http://www.w3.org/1999/xlink"><clipPath id="a"><path d="m0 0h148v40h-148z"/></clipPath><g clip-path="url(#a)" fill="#fff"><path d="m61.2321 8.35433v7.29527c0 .228.1013.3419.3039.3419h1.8238c1.7732 0 3.1284-.3672 4.0656-1.1018.9373-.76 1.4059-1.8112 1.4059-3.1537 0-2.63441-1.7352-3.95161-5.2055-3.95161-.7852 0-1.4692.05066-2.0518.15198-.2279.05066-.3419.18998-.3419.41796zm-4.1796 22.64567c-.5826 0-1.0892-.2153-1.5198-.6459-.4307-.4307-.646-.9373-.646-1.5199v-23.21559c0-.63327.2027-1.17788.608-1.63383.4306-.45595.9499-.70926 1.5578-.75992 2.2544-.22798 4.5722-.34197 6.9533-.34197 3.7996 0 6.624.72193 8.4731 2.16578 1.8745 1.41852 2.8117 3.44498 2.8117 6.07933 0 1.6972-.4939 3.2297-1.4818 4.5976-.9879 1.3425-2.2798 2.3051-3.8756 2.8877-.0254 0-.038.0126-.038.038 0 .0506.0253.076.076.076 1.2412.7092 2.2924 2.2037 3.1536 4.4835l2.1658 5.7754c.1773.4813.114.9372-.19 1.3679-.3039.4306-.7092.6459-1.2158.6459h-2.3178c-.6586 0-1.2539-.19-1.7858-.5699-.532-.38-.8993-.8739-1.1019-1.4819l-1.8998-5.4714c-.3546-1.0639-.7853-1.7858-1.2919-2.1658s-1.2918-.5699-2.3557-.5699h-1.5959c-.2026 0-.3039.1139-.3039.3419v7.7512c0 .5826-.2153 1.0892-.646 1.5199-.4306.4306-.9372.6459-1.5198.6459z"/><path d="m81.2691 31c-.5826 0-1.0892-.2153-1.5199-.6459-.4306-.4307-.6459-.9373-.6459-1.5199v-15.4264c0-.5826.2153-1.0892.6459-1.5198.4307-.4307.9373-.646 1.5199-.646h2.1278c.5826 0 1.0892.2153 1.5198.646.4306.4306.6459.9372.6459 1.5198v15.4264c0 .5826-.2153 1.0892-.6459 1.5199-.4306.4306-.9372.6459-1.5198.6459zm0-23.55758c-.5826 0-1.0892-.21531-1.5199-.64593-.4306-.43062-.6459-.93724-.6459-1.51985v-.60793c0-.58261.2153-1.08922.6459-1.51985.4307-.43062.9373-.64593 1.5199-.64593h2.1278c.5826 0 1.0892.21531 1.5198.64593.4306.43063.6459.93724.6459 1.51985v.60793c0 .58261-.2153 1.08923-.6459 1.51985s-.9372.64593-1.5198.64593z"/><path d="m99.1866 31.38c-3.2677 0-5.7754-.8613-7.5232-2.5838s-2.6218-4.2809-2.6218-7.6752c0-3.3183.836-5.8514 2.5078-7.5992 1.6972-1.7732 4.1162-2.6597 7.2572-2.6597 1.0386 0 2.4194.114 4.1414.3419.633.1014 1.14.3927 1.52.8739.405.456.608 1.0006.608 1.6339v.3799c0 .532-.215.9626-.646 1.2919s-.912.4433-1.444.342c-1.038-.1773-2.115-.266-3.2295-.266-1.4438 0-2.5204.456-3.2296 1.3679-.6839.8865-1.0259 2.3177-1.0259 4.2935 0 2.0265.3673 3.483 1.1019 4.3696.7599.8612 1.9378 1.2918 3.5341 1.2918 1.19 0 2.254-.1013 3.191-.3039.532-.1267 1.001-.0254 1.406.3039.431.3293.646.76.646 1.2919v.38c0 .6332-.203 1.2032-.608 1.7098-.405.4813-.912.7726-1.52.8739-1.393.228-2.748.342-4.0654.342z"/><path d="m110.48 31c-.583 0-1.089-.2153-1.52-.6459-.405-.4307-.608-.9373-.608-1.5199v-24.16549c0-.58261.203-1.08922.608-1.51985.431-.43062.937-.64593 1.52-.64593h1.862c.582 0 1.076.21531 1.482.64593.43.43063.646.93724.646 1.51985v14.02059c0 .0253.012.038.038.038l.076-.038 4.749-5.7754c.912-1.1146 2.077-1.6719 3.496-1.6719h2.735c.406 0 .697.19.874.57.203.3799.165.7346-.114 1.0639l-6.497 7.6372c-.127.152-.127.3166 0 .4939l6.573 8.3212c.254.3546.279.7219.076 1.1019-.177.3799-.481.5699-.912.5699h-2.735c-1.419 0-2.571-.5699-3.458-1.7098l-4.787-6.2314c-.026-.0253-.051-.038-.076-.038-.026 0-.038.0127-.038.038v5.7754c0 .5826-.216 1.0892-.646 1.5199-.406.4306-.9.6459-1.482.6459z"/><path d="m134.27 30.696-6.421-17.4402c-.203-.4813-.152-.9372.152-1.3678.304-.4307.722-.646 1.254-.646h2.394c.608 0 1.165.2027 1.671.608.507.3799.836.8739.988 1.4818l2.888 11.8168c0 .0253.013.038.038.038s.038-.0127.038-.038l3.458-11.8548c.152-.6079.481-1.1019.988-1.4818.532-.38 1.127-.57 1.785-.57h2.09c.507 0 .912.2153 1.216.646.304.4306.367.8865.19 1.3678l-8.967 24.0896c-.228.6079-.608 1.0892-1.14 1.4438-.532.38-1.114.5699-1.748.5699h-2.09c-.531 0-.937-.2153-1.215-.6459-.279-.4053-.317-.8486-.114-1.3298l2.545-6.0794c.026-.1013.038-.2027.038-.304s-.012-.2026-.038-.304z"/><g clip-rule="evenodd" fill-rule="evenodd"><path d="m37.113 5.51973c.0324-.68975-.5376-1.09231-1.1131-.90362-1.5942.52277-3.8428 1.5084-5.8636 3.2843l-.3846.33801-.4633-.21907c-2.4258-1.14701-5.2583-1.80861-8.2901-1.80861-3.0089 0-5.8215.65161-8.235 1.78264l-.461.21602-.3829-.33473c-2.01319-1.75973-4.24784-2.73835-5.83424-3.25856-.57545-.18869-1.14545.21387-1.11312.90362.09439 2.01388.39916 5.01057 1.31019 7.53367l.12355.3422-.18513.3133c-1.00087 1.6941-1.55572 3.5803-1.55572 5.5661 0 7.072 7.15317 13.0643 16.33337 13.0643 9.1801 0 16.3333-5.9923 16.3333-13.0643 0-1.9518-.536-3.8071-1.5045-5.4785l-.182-.3141.1254-.3405c.936-2.5405 1.247-5.58383 1.3425-7.62217zm-26.6618 3.78412c-.80806-.74876-1.72084-1.16862-2.38244-1.39542-.46514-.15945-.89029.21923-.84494.70728.09176.98778.25488 2.44799.44847 2.87519.17913.3954.2352.3202.48545-.0156.17025-.2284.43036-.5774.8802-.9808.55284-.49576.95284-.74901 1.19166-.90019.2411-.15268.3179-.20128.2216-.29046zm23.4143-1.39542c-.6616.2268-1.5743.64666-2.3824 1.39542-.0963.08918-.0195.13778.2216.29046.2388.15119.6388.40443 1.1917.90019.4498.4034.7099.7524.8801.9808.2503.3357.3064.411.4855.0156.1936-.4272.3567-1.88741.4485-2.87519.0453-.48805-.3798-.86673-.845-.70728zm-20.84 7.39877c.0584-.1148.2607-.3539.598-.5701.3271-.2097.6821-.3335.9894-.3335.7379 0 1.4694.4429 1.5598 1.299.0449.4256.4277.7344.8549.6896s.7371-.4262.6921-.8519c-.1994-1.888-1.8448-2.6867-3.1068-2.6867-.6928 0-1.3378.2637-1.831.5799-.4831.3097-.9213.7349-1.1442 1.1736-.194.3819-.0406.8482.3426 1.0415s.8512.0405 1.0452-.3414zm.8962 6.6956c.1601.3323.5873.8272 1.2038 1.244.6087.4117 1.3008.6782 1.94.6782 1.3804 0 2.9483-.8862 3.1559-2.8165-1.3423-.1719-2.3342-.7789-2.3342-1.5013 0-.8561 1.3928-1.55 3.1111-1.55 1.7182 0 3.1111.6939 3.1111 1.55 0 .7224-.992 1.3294-2.3343 1.5013.2076 1.9303 1.7755 2.8165 3.1559 2.8165.6392 0 1.3314-.2665 1.9401-.6782.6164-.4168 1.0437-.9117 1.2037-1.244.1859-.3859.6505-.5486 1.0378-.3634.3872.1852.5505.6482.3646 1.0341-.314.6518-.9665 1.3378-1.7326 1.8559-.7739.5233-1.7673.9456-2.8136.9456-.0523 0-.105-.0009-.158-.0027-.0799 1.4384-1.7394 2.992-3.7747 2.992-2.0354 0-3.6948-1.5536-3.7748-2.992-.0529.0018-.1056.0027-.158.0027-1.0463 0-2.0396-.4223-2.8135-.9456-.7662-.5181-1.4187-1.2041-1.7327-1.8559-.1859-.3859-.0226-.8489.3647-1.0341.3872-.1852.8518-.0225 1.0377.3634zm14.6214-7.2657c.3373.2162.5397.4553.598.5701.1941.3819.662.5347 1.0453.3414.3832-.1933.5366-.6596.3426-1.0415-.2229-.4387-.6612-.8639-1.1442-1.1736-.4933-.3162-1.1383-.5799-1.831-.5799-1.2621 0-2.9074.7987-3.1068 2.6867-.045.4257.2649.8071.6921.8519s.8099-.264.8549-.6896c.0904-.8561.8219-1.299 1.5598-1.299.3073 0 .6623.1238.9893.3335z"/><path d="m34.8204.969495c3.2824-1.078505 6.213 1.541395 6.0667 4.669785-.0871 1.86151-.3457 4.72872-1.1448 7.46722.877 1.891 1.3675 3.9634 1.3675 6.1412 0 9.8748-9.6251 16.8689-20.1135 16.8689s-20.113488-6.9941-20.113488-16.8689c0-2.2231.511038-4.3359 1.422228-6.258-.77204-2.701-1.025-5.51286-1.11095-7.35042-.14633-3.1284 2.78428-5.748289 6.06666-4.669785 1.51693.498425 3.58245 1.362875 5.64005 2.825045 2.4888-.91471 5.2302-1.41583 8.0955-1.41583 2.8877 0 5.6495.50896 8.1539 1.43735 2.0677-1.47531 4.1461-2.34578 5.6702-2.846565zm.6932 2.174295c1.6929-.55513 3.2324.7611 3.1533 2.44825-.0938 2.00124-.3917 5.05796-1.3154 7.74496.9847 1.81 1.5357 3.8198 1.5357 5.938 0 8.2145-8.1687 14.6143-17.8889 14.6143-9.7203 0-17.88892-6.3998-17.88892-14.6143 0-2.1572.57142-4.2019 1.59034-6.0375-.89699-2.6621-1.18887-5.6681-1.28154-7.64547-.07908-1.68714 1.46035-3.00337 3.15324-2.44824 1.61265.52882 3.87508 1.50433 5.98848 3.23929 2.5177-1.10083 5.3919-1.72234 8.4384-1.72234 3.0697 0 5.9646.63105 8.496 1.7477 2.1223-1.75085 4.3989-2.73329 6.0193-3.26465z"/></g></g></svg>