<svg xmlns="http://www.w3.org/2000/svg" xmlns:xlink="http://www.w3.org/1999/xlink" x="0px" y="0px" viewBox="0 0 40 40" style="enable-background:new 0 0 40 40;" xml:space="preserve"><style type="text/css">	.st0{fill:#73BE2F;}</style><path class="st0" d="M23.5,38.5h-7c-1.1,0-2-0.9-2-2v-11h-11c-1.1,0-2-0.9-2-2v-7c0-1.1,0.9-2,2-2h11v-11c0-1.1,0.9-2,2-2h7 c1.1,0,2,0.9,2,2v11h11c1.1,0,2,0.9,2,2v7c0,1.1-0.9,2-2,2h-11l0,11C25.5,37.6,24.6,38.5,23.5,38.5z M3.5,16.5v7h11c1.1,0,2,0.9,2,2 v11h7v-11c0-1.1,0.9-2,2-2h11v-7h-11c-1.1,0-2-0.9-2-2v-11h-7v11c0,1.1-0.9,2-2,2H3.5z"></path></svg>