<svg xmlns="http://www.w3.org/2000/svg" xmlns:xlink="http://www.w3.org/1999/xlink" x="0px" y="0px" viewBox="0 0 40 40" style="enable-background:new 0 0 40 40;" xml:space="preserve"><style type="text/css">	.st0{fill:#73BE2F;}</style><path class="st0" d="M36.93848,5.58008C34.96484,3.59424,32.34082,2.5,29.54883,2.5s-5.41602,1.09424-7.38965,3.08057L20,7.75342 l-2.15869-2.17334C15.86719,3.59424,13.24268,2.5,10.45117,2.5S5.03516,3.59424,3.06104,5.58008 c-4.07471,4.10059-4.07471,10.77295,0,14.87354l16.93945,17.04736l16.93799-17.04736 C41.01367,16.35303,41.01367,9.68066,36.93848,5.58008z M19.99951,34.66309l-4.633-4.66211h0.02411 c0.00244-5.11328-0.37695-7.11426-1.0332-8.84277c-0.76562-2.0166-1.81396-3.96289-4.28369-4.55029 c-1.79492-0.42725-3.16357-1.41113-3.85449-2.77051c-0.20752-0.4082-0.27246-0.76123-0.17432-0.94434 c0.06396-0.11914,0.19824-0.17041,0.25244-0.17676c0.39746-0.04492,2.10156-0.03223,3.51758,0.00586l0.46338,0.0127l0.30908-0.34521 c0.10669-0.11926,0.60944-0.49677,1.4895-0.72003c0.08209,0.28662,0.18073,0.604,0.28381,0.91296 c0.1875,0.56213,0.4176,1.18732,0.60797,1.56219c0.3277,0.64532,0.45441,0.84753,0.77704,1.27264 c0.33417,0.44037,0.96167,0.5274,1.40155,0.19427c0.43994-0.33301,0.52563-0.96002,0.19141-1.40039 c-0.23517-0.31-0.3006-0.4054-0.58649-0.96851c-0.11639-0.22931-0.30682-0.72827-0.49377-1.289 c-0.04596-0.13782-0.0896-0.27295-0.13007-0.40204c1.021,0.19226,2.00909,0.98254,3.19733,3.60645 c0.57861,1.38184,1.83887,3.49951,3.64062,5.29688c2.3833,2.37793,4.44775,2.6543,5.95459,2.85645 c0.17578,0.02344,0.34766,0.0459,0.51465,0.07227c0.93262,0.14355,1.96777,0.22461,3.06348,0.30859 c0.12036,0.00934,0.24768,0.02338,0.36926,0.0329L19.99951,34.66309z M24.36139,12.52057 c1.255,0.09991,2.63776,0.68469,3.45697,1.23724c0.64355,0.43408,1.25098,1.05762,1.43066,1.26123l0.24121,0.27246l0.93555,0.14111 c0.55273,0.08301,0.9707,0.41748,1.08301,0.68994c0.0459,0.11133,0.05176,0.21875-0.07031,0.38379 c-0.125,0.16992-0.26953,0.31934-0.42969,0.44287c-0.63672,0.4917-1.87598,0.56299-2.41797,0.55225 c-0.89148-0.20508-2.67297,0.98596-4.07196,3.11987c-0.65991-0.32373-1.36298-0.80688-2.13995-1.58228 c-0.70459-0.70288-1.30786-1.45569-1.81329-2.185l0.28198,0.17651C22.09235,15.04218,23.10077,13.75653,24.36139,12.52057z  M35.52051,19.04346l-2.81921,2.8371c-0.68872-0.06952-1.3797-0.13019-2.04797-0.18231 c-1.05664-0.08105-2.05469-0.1582-2.91211-0.29102c-0.17969-0.02734-0.36426-0.05273-0.55469-0.07812 c-0.21954-0.02948-0.44122-0.06165-0.66449-0.09753c0.80505-1.07928,1.55737-1.58649,1.87152-1.73596 c0.49609,0.02197,2.5166,0.05713,3.83887-0.96387c0.30664-0.23779,0.58203-0.52051,0.81641-0.83838 c0.51953-0.70312,0.63184-1.55469,0.30762-2.33594c-0.4043-0.97607-1.4375-1.72266-2.63281-1.90234l-0.23145-0.03516 c-0.36719-0.37598-0.94238-0.90674-1.55566-1.32031c-0.63257-0.4267-1.55487-0.89008-2.58344-1.20905 c0.49835-0.30243,0.81122-0.39819,0.91632-0.42755c0.53192-0.1488,0.84241-0.70056,0.6936-1.23242s-0.7005-0.84241-1.23242-0.6936 c-0.51007,0.14264-1.6275,0.54834-3.29187,2.09711c-1.46014,1.35864-2.57465,2.69946-3.84064,4.64032 c-0.17371-0.32843-0.32336-0.6391-0.4389-0.91504c-1.67139-3.69141-3.44092-5.05518-6.27686-4.8374 c-1.56543,0.11523-2.73828,0.65771-3.41504,1.19092c-0.86572-0.02002-2.78516-0.05225-3.39746,0.01611 c-0.74463,0.08594-1.4292,0.55225-1.78662,1.21729c-0.29736,0.55322-0.51221,1.48779,0.15283,2.79736 c0.96143,1.8916,2.79932,3.24463,5.1748,3.80957c1.48828,0.354,2.18164,1.4834,2.87646,3.31494 c0.48535,1.27802,0.79681,2.78082,0.88007,6.12109l-6.02948-6.06738l0.00146-0.00098l-2.85938-2.87744 c-3.30225-3.32275-3.30225-8.73047,0-12.05322C6.07568,5.38428,8.19629,4.5,10.45117,4.5s4.37549,0.88428,5.97119,2.48975 L20,10.58936l3.57715-3.59912C25.17285,5.38428,27.29395,4.5,29.54883,4.5s4.37598,0.88428,5.97168,2.49023 C38.82324,10.31348,38.82324,15.72021,35.52051,19.04346z"></path></svg>