<svg xmlns="http://www.w3.org/2000/svg" xmlns:xlink="http://www.w3.org/1999/xlink" x="0px" y="0px" viewBox="0 0 28 28" style="enable-background:new 0 0 28 28;" xml:space="preserve"><style type="text/css">	.st0{fill:#73BE2F;}</style><path class="st0" d="M21.07129,3.42936c-1.93262-1.93213-4.4043-1.92188-6.86523-1.9292h-0.41211 c-2.44531-0.00391-4.93311-0.00293-6.86475,1.9292C5.04053,5.31754,4,7.82877,4,10.50016v1v5v3.40039 c0,2.40039,1.15674,4.37988,3.26465,5.47363c1.68304,0.6734,3.87152,1.05164,6.19879,1.10474 c0.03632,0.00397,1.67523,0.02124,1.67523,0.02124c0.62988,0,1.23145-0.20117,1.69336-0.56738 c0.52344-0.41406,0.82422-1.00879,0.82422-1.63281v-0.59961c0-0.62402-0.30078-1.21875-0.82422-1.63281 c-0.46191-0.36621-1.06348-0.56738-1.69336-0.56738h-3.79492c-0.55225,0-1,0.44727-1,1v1.67218 c-0.84436-0.15698-1.61334-0.36292-2.24512-0.61359C6.36426,22.65446,6,21.07047,6,19.90055v-0.5824 c0.31805,0.11267,0.65265,0.18201,1,0.18201h1c0.80127,0,1.55469-0.3125,2.12109-0.87891C10.68799,18.05485,11,17.30094,11,16.50016 v-3c0-0.80127-0.31201-1.55469-0.87891-2.12109C9.55469,10.81217,8.80127,10.50016,8,10.50016H6 c0-2.13721,0.83203-4.146,2.34326-5.65674c1.34521-1.34619,3.22119-1.35645,5.44922-1.34326h0.41504 c2.20459-0.00146,4.10303-0.00195,5.44971,1.34326C21.16797,6.35417,22,8.36344,22,10.50016h-2 c-0.80078,0-1.55469,0.31201-2.12109,0.87891C17.3125,11.94547,17,12.69889,17,13.50016v3c0,0.80078,0.3125,1.55469,0.87891,2.12109 S19.19922,19.50016,20,19.50016h1c0.80078,0,1.55469-0.3125,2.12109-0.87891S24,17.30094,24,16.50016v-5v-1 C24,7.82877,22.95996,5.31803,21.07129,3.42936z M12.34375,24.29997v-0.7998h2.79492c0.17578,0,0.3457,0.05078,0.51758,0.2002 c0,0,0.10538,0.06406,0.10537,0.32227c0,0.21909-0.16983,0.34179-0.16983,0.34179c-0.10742,0.08496-0.27734,0.13574-0.45312,0.13574 H14c-0.56873,0-1.13306-0.02332-1.68311-0.06702C12.32324,24.38761,12.34375,24.34721,12.34375,24.29997z M8,12.50016 c0.26318,0,0.52051,0.10693,0.70703,0.29297C8.89307,12.97965,9,13.23698,9,13.50016v3c0,0.2627-0.10693,0.52051-0.29297,0.70703 C8.52051,17.39372,8.26318,17.50016,8,17.50016H7c-0.26318,0-0.52051-0.10645-0.70703-0.29297 C6.10693,17.02067,6,16.76286,6,16.50016v-4H8z M21.70703,17.20719C21.52051,17.39372,21.2627,17.50016,21,17.50016h-1 c-0.2627,0-0.52051-0.10645-0.70703-0.29297S19,16.76286,19,16.50016v-3c0-0.26318,0.10645-0.52051,0.29297-0.70703 C19.47949,12.6071,19.7373,12.50016,20,12.50016h2v4C22,16.76286,21.89355,17.02067,21.70703,17.20719z"></path></svg>