<svg xmlns="http://www.w3.org/2000/svg" xmlns:xlink="http://www.w3.org/1999/xlink" x="0px" y="0px" viewBox="0 0 28 28" style="enable-background:new 0 0 28 28;" xml:space="preserve"><style type="text/css">	.st0{fill:#73BE2F;}</style><g>	<path class="st0" d="M14,15H7c-1.33496,0-2.59033,0.52051-3.53564,1.46484C2.52002,17.40918,2,18.66406,2,20v3  c0,0.55273,0.44775,1,1,1s1-0.44727,1-1v-3c0-0.79004,0.32031-1.5625,0.87842-2.12109C5.4458,17.3125,6.19922,17,7,17h7  c0.78955,0,1.5625,0.32031,2.12109,0.87891S17,19.21094,17,20v3c0,0.55273,0.44727,1,1,1s1-0.44727,1-1v-3  c0-1.33496-0.52051-2.59082-1.46484-3.53516S15.33496,15,14,15z"></path>	<path class="st0" d="M10.5,14c2.75684,0,5-2.24316,5-5s-2.24316-5-5-5s-5,2.24316-5,5S7.74316,14,10.5,14z M10.5,6  c1.6543,0,3,1.3457,3,3s-1.3457,3-3,3s-3-1.3457-3-3S8.8457,6,10.5,6z"></path>	<path class="st0" d="M25.70703,9.29297c-0.39062-0.39062-1.02344-0.39062-1.41406,0L21,12.58594l-1.29297-1.29297  c-0.39062-0.39062-1.02344-0.39062-1.41406,0s-0.39062,1.02344,0,1.41406l2,2C20.48828,14.90234,20.74414,15,21,15  s0.51172-0.09766,0.70703-0.29297l4-4C26.09766,10.31641,26.09766,9.68359,25.70703,9.29297z"></path></g></svg>