<svg xmlns="http://www.w3.org/2000/svg" xmlns:xlink="http://www.w3.org/1999/xlink" x="0px" y="0px" viewBox="0 0 22 22" style="enable-background:new 0 0 22 22;" xml:space="preserve"><style type="text/css">	.st0{clip-path:url(#SVGID_00000002357337808589072380000013266437765110326401_);}	.st1{fill-rule:evenodd;clip-rule:evenodd;fill:#73BE2F;}</style><g>	<defs>		<rect id="IP_ID_8582" width="22" height="22"></rect>	</defs>	<clipPath id="SVGID_00000148639417382480354490000005120468628673590699_">		<use xlink:href="#IP_ID_8582" style="overflow:visible;"></use>	</clipPath>	<g style="clip-path:url(#SVGID_00000148639417382480354490000005120468628673590699_);">		<path class="st1" d="M8.26367,7.50711c0-1.51234,1.20846-2.76981,2.73763-2.76981c1.5292,0,2.7376,1.25747,2.7376,2.76981   c0,1.51235-1.2084,2.76979-2.7376,2.76979C9.47213,10.2769,8.26367,9.01946,8.26367,7.50711z M11.0013,6.7373   c-0.3902,0-0.7376,0.32728-0.7376,0.76981c0,0.44253,0.3474,0.76981,0.7376,0.76981c0.3902,0,0.7376-0.32728,0.7376-0.76981   C11.7389,7.06458,11.3915,6.7373,11.0013,6.7373z"></path>		<path class="st1" d="M10.9685,0.08594l0.0599,0c0.3325-0.00005,0.7603-0.00012,1.172,0.06054l0.0194,0.00305   c0.1996,0.03343,0.3964,0.08288,0.5902,0.14731c1.7085,0.53998,3.7582,1.33298,5.3908,2.67773   C19.8747,4.3534,21.109,6.3159,21.109,9.08602c0,0.56428,0.0251,1.16358,0.052,1.80528l0.0024,0.0571   c0.0274,0.655,0.0558,1.3495,0.0548,2.0463c-0.0018,1.3847-0.1172,2.8666-0.6334,4.2225   c-0.5285,1.3883-1.4675,2.6182-3.0437,3.4805C15.9933,21.5444,13.8992,22,11.1074,22h-0.2436   c-2.79726,0-4.90746-0.4939-6.47815-1.3873c-1.59156-0.9052-2.55531-2.1791-3.11609-3.586   c-0.55088-1.3821-0.70658-2.8749-0.73644-4.2422C0.5181,12.0969,0.5349,11.4243,0.5546,10.8016l0.01081-0.3327   c0.01647-0.50041,0.03153-0.9581,0.03155-1.38293c0.00013-2.55616,1.40491-4.51771,3.1125-5.92102   C5.4101,1.76733,7.50582,0.8372,9.17468,0.30933C9.36697,0.24539,9.56231,0.1962,9.76035,0.16278   C10.1982,0.08577,10.6368,0.08587,10.9685,0.08594z M10.9991,2.08595c-0.3674,0-0.6439,0.00259-0.8945,0.04699l-0.0093,0.00163   C10.0002,2.1505,9.90232,2.1748,9.80122,2.20867L9.78476,2.21402C8.26556,2.6938,6.42194,3.52451,4.97929,4.71011   C3.54093,5.89217,2.59704,7.3398,2.59695,9.08607C2.59693,9.547,2.58049,10.0452,2.56395,10.5467L2.5536,10.8648   c-0.01952,0.6171-0.03474,1.245-0.02096,1.876c0.02774,1.27,0.17286,2.4868,0.59478,3.5454   c0.41203,1.0337,1.09306,1.9317,2.24704,2.588c0.47145,0.2682,1.03328,0.5024,1.70366,0.6868v-5.3831   c0-2.0259,2.00799-3.2668,3.92318-3.2668c1.9152,0,3.9232,1.2409,3.9232,3.2668v5.4042c0.6548-0.172,1.2009-0.3897,1.6567-0.639   c1.1221-0.6139,1.7599-1.4533,2.1344-2.4374c0.3869-1.0163,0.5009-2.2099,0.5026-3.5137   c0.0009-0.6474-0.0254-1.3005-0.0531-1.9599l-0.0031-0.0747c-0.0263-0.6273-0.053-1.26414-0.053-1.87138   c0-2.07913-0.8898-3.50512-2.1798-4.56772C15.6003,3.42364,13.8499,2.72261,12.2,2.20156L12.1835,2.1962   c-0.0977-0.03274-0.1925-0.05659-0.2847-0.07253C11.6484,2.08782,11.3615,2.08595,10.9991,2.08595z M12.9473,19.9187   c-0.0149-0.0688-0.0228-0.1402-0.0228-0.2135v-5.5273c0-0.4779-0.6095-1.2668-1.9232-1.2668   c-1.31366,0-1.92318,0.7889-1.92318,1.2668v5.5273c0,0.0721-0.00762,0.1424-0.02211,0.2102C9.60725,19.9704,10.2083,20,10.8638,20   h0.2436C11.7769,20,12.3885,19.9716,12.9473,19.9187z"></path>	</g></g></svg>