<svg xmlns="http://www.w3.org/2000/svg" xmlns:xlink="http://www.w3.org/1999/xlink" x="0px" y="0px" viewBox="0 0 12 14" style="enable-background:new 0 0 12 14;" xml:space="preserve" width="12"  height="14" ><style type="text/css" fill="#FFFFFF">	.st0{fill:#73BE2F;}</style><path class="st0" d="M9.9960938,12.75c-0.0537109,0-0.1064453-0.0019531-0.1611328-0.0068359 c-1.6689453-0.1816406-3.2822266-0.7539062-4.6782227-1.6582031c-1.293457-0.8203125-2.4165039-1.9414062-3.2416992-3.2373047 c-0.90625-1.3959961-1.4804688-3.0141602-1.6567383-4.6748047c-0.0229492-0.2583008,0.0058594-0.4995117,0.0844727-0.730957 c0.0771484-0.2290039,0.2001953-0.4379883,0.3652344-0.6196289c0.1655273-0.1811523,0.362793-0.3227539,0.5864258-0.4223633 C1.5224609,1.2998047,1.7602539,1.25,2.0048828,1.25h1.5083008C3.9477539,1.2558594,4.34375,1.3959961,4.6669922,1.6733398 s0.5341797,0.6625977,0.5942383,1.0849609c0.0576172,0.4331055,0.1621094,0.8520508,0.3120117,1.2524414 C5.690918,4.3217773,5.7163086,4.6621094,5.6459961,4.9921875c-0.0698242,0.328125-0.2319336,0.628418-0.4682617,0.8671875 L4.9575195,6.0795898c0.5209961,0.7680664,1.1850586,1.4306641,1.9550781,1.9506836l0.2182617-0.2182617 c0.2421875-0.2387695,0.5419922-0.3999023,0.8710938-0.4702148C8.328125,7.2714844,8.6699219,7.2973633,8.9853516,7.4150391 c0.3984375,0.1484375,0.8193359,0.2529297,1.2470703,0.309082c0.4375,0.0629883,0.8251953,0.277832,1.1025391,0.6049805 C11.6103516,8.6533203,11.7578125,9.0673828,11.75,9.4941406v1.4980469c0,0.2470703-0.0498047,0.4863281-0.1494141,0.7099609 c-0.0966797,0.2216797-0.2382812,0.4208984-0.4208984,0.5878906c-0.1845703,0.1669922-0.3935547,0.2900391-0.6230469,0.3681641 C10.375,12.7197266,10.1865234,12.75,9.9960938,12.75z M3.5234375,2.75c-0.0009766,0-0.0019531,0-0.0029297,0h-1.515625 c-0.0356445,0-0.0708008,0.0073242-0.1044922,0.0219727C1.8696289,2.7861328,1.840332,2.8071289,1.815918,2.8334961 C1.7929688,2.8583984,1.7744141,2.8901367,1.7636719,2.9228516C1.7519531,2.9570312,1.7480469,2.9916992,1.7509766,3.027832 c0.1503906,1.4130859,0.644043,2.8041992,1.4257812,4.0087891c0.7114258,1.1166992,1.6748047,2.0786133,2.7895508,2.784668 C7.1728516,10.6035156,8.5595703,11.0957031,9.984375,11.25c0.0224609,0.0068359,0.0576172-0.0009766,0.0917969-0.0136719 c0.0341797-0.0107422,0.0654297-0.0302734,0.09375-0.0556641c0.0234375-0.0214844,0.0429688-0.0498047,0.0576172-0.0810547 C10.2431641,11.0644531,10.25,11.0283203,10.25,10.9921875V9.4873047c0-0.0058594,0-0.0117188,0-0.0175781 c0.0019531-0.0625-0.0195312-0.1230469-0.0595703-0.1708984C10.1494141,9.25,10.0917969,9.2197266,10.0283203,9.2099609 c-0.53125-0.0693359-1.0625-0.2011719-1.5683594-0.3896484C8.4111328,8.8017578,8.3603516,8.7978516,8.3144531,8.8085938 C8.2666016,8.8193359,8.2226562,8.8427734,8.1875,8.8769531L7.5527344,9.5107422 C7.3134766,9.75,6.9438477,9.796875,6.6523438,9.6328125c-1.3754883-0.78125-2.5161133-1.9194336-3.2983398-3.2924805 C3.1870117,6.046875,3.2368164,5.6772461,3.4760742,5.4384766l0.6386719-0.637207 c0.0307617-0.03125,0.0541992-0.074707,0.0644531-0.1220703c0.0102539-0.0478516,0.0068359-0.0961914-0.0097656-0.1401367 C3.9790039,4.0302734,3.8466797,3.5004883,3.7749023,2.9619141C3.7670898,2.9072266,3.7368164,2.8520508,3.6904297,2.8120117 C3.6435547,2.7719727,3.5844727,2.75,3.5234375,2.75z" fill="#73BE2F"></path></svg>